REM MD5 2f834c7d1787c87c971d2a5a8fbadf9f
FILE "Defcon 5 - Peace Has a Price... (USA).bin" BINARY
  TRACK 01 MODE2/2352
    INDEX 01 00:00:00
  TRACK 02 AUDIO
    INDEX 00 35:09:35
    INDEX 01 35:11:35
  TRACK 03 AUDIO
    INDEX 00 46:55:62
    INDEX 01 46:57:62
REM LEADOUT 50:04:55
